<svg preserveAspectRatio="none" overflow="visible" style="display: block;" width="35" height="35" viewBox="0 0 35 35" fill="none" xmlns="http://www.w3.org/2000/svg">
<g id="boxicons:phone-filled">
<rect width="35" height="35" rx="17.5" fill="#F4EFE9"/>
<path id="Vector" d="M22.3039 25H22.5812C22.8136 24.9925 23.0309 24.8726 23.1658 24.6776L24.8671 22.2262C24.9795 22.0613 25.0245 21.8589 24.987 21.6564C24.9687 21.5578 24.9307 21.4638 24.8753 21.3801C24.82 21.2964 24.7484 21.2247 24.6648 21.1691L20.9849 18.7177C20.6776 18.5153 20.2654 18.5603 20.018 18.8302L18.609 20.352C18.0394 20.0146 17.0876 19.4074 16.3381 18.6577C15.5887 17.908 14.9816 16.956 14.6443 16.3937L16.1658 14.9843C16.4356 14.7369 16.488 14.3246 16.2782 14.0172L13.8274 10.3363C13.715 10.1714 13.5426 10.0514 13.3478 10.0139C13.1454 9.97646 12.943 10.0139 12.7782 10.1339L10.3274 11.8282C10.1325 11.9631 10.0126 12.1805 10.0051 12.4129C9.98263 12.9452 9.8852 17.6906 13.5951 21.3941C16.9377 24.7376 21.1198 24.9925 22.3039 24.9925V25Z" fill="#005488"/>
</g>
</svg>
